<svg width="26" height="26" viewBox="0 0 26 26" fill="none" xmlns="http://www.w3.org/2000/svg">
<path d="M10.92 11.7648C10.9742 11.4073 11.0934 11.0932 11.245 10.8223C11.3967 10.5515 11.6134 10.324 11.8842 10.1507C12.1442 9.98817 12.4692 9.91234 12.87 9.9015C13.1192 9.91234 13.3467 9.95567 13.5525 10.0423C13.7692 10.1398 13.9642 10.2698 14.1159 10.4323C14.2675 10.5948 14.3867 10.7898 14.4842 11.0065C14.5817 11.2232 14.625 11.4615 14.6359 11.6998H16.575C16.5534 11.1907 16.4559 10.7248 16.2717 10.3023C16.0875 9.87984 15.8384 9.5115 15.5134 9.20817C15.1884 8.90484 14.7984 8.6665 14.3434 8.49317C13.8884 8.31984 13.39 8.244 12.8375 8.244C12.1334 8.244 11.5159 8.36317 10.9959 8.61234C10.4759 8.8615 10.0425 9.1865 9.69585 9.609C9.34919 10.0315 9.08919 10.519 8.92669 11.0823C8.76419 11.6457 8.66669 12.2307 8.66669 12.859V13.1515C8.66669 13.7798 8.75335 14.3648 8.91585 14.9282C9.07835 15.4915 9.33835 15.979 9.68502 16.3907C10.0317 16.8023 10.465 17.1382 10.985 17.3765C11.505 17.6148 12.1225 17.7448 12.8267 17.7448C13.3359 17.7448 13.8125 17.6582 14.2567 17.4957C14.7009 17.3332 15.0909 17.1057 15.4267 16.8132C15.7625 16.5207 16.0334 16.1848 16.2284 15.7948C16.4234 15.4048 16.5425 14.9932 16.5534 14.549H14.6142C14.6034 14.7765 14.5492 14.9823 14.4517 15.1773C14.3542 15.3723 14.2242 15.5348 14.0617 15.6757C13.8992 15.8165 13.715 15.9248 13.4984 16.0007C13.2925 16.0765 13.0759 16.0982 12.8484 16.109C12.4584 16.0982 12.1334 16.0223 11.8842 15.8598C11.6134 15.6865 11.3967 15.459 11.245 15.1882C11.0934 14.9173 10.9742 14.5923 10.92 14.2348C10.8659 13.8773 10.8334 13.509 10.8334 13.1515V12.859C10.8334 12.4798 10.8659 12.1223 10.92 11.7648ZM13 2.1665C7.02002 2.1665 2.16669 7.01984 2.16669 12.9998C2.16669 18.9798 7.02002 23.8332 13 23.8332C18.98 23.8332 23.8334 18.9798 23.8334 12.9998C23.8334 7.01984 18.98 2.1665 13 2.1665ZM13 21.6665C8.22252 21.6665 4.33335 17.7773 4.33335 12.9998C4.33335 8.22234 8.22252 4.33317 13 4.33317C17.7775 4.33317 21.6667 8.22234 21.6667 12.9998C21.6667 17.7773 17.7775 21.6665 13 21.6665Z" fill="white"/>
</svg>
