<svg width="21" height="21" viewBox="0 0 21 21" fill="none" xmlns="http://www.w3.org/2000/svg">
<path d="M2.625 5.90625C2.625 5.03601 2.9707 4.20141 3.58606 3.58606C4.20141 2.9707 5.03601 2.625 5.90625 2.625H15.0938C15.964 2.625 16.7986 2.9707 17.4139 3.58606C18.0293 4.20141 18.375 5.03601 18.375 5.90625V15.0938C18.375 15.964 18.0293 16.7986 17.4139 17.4139C16.7986 18.0293 15.964 18.375 15.0938 18.375H5.90625C5.03601 18.375 4.20141 18.0293 3.58606 17.4139C2.9707 16.7986 2.625 15.964 2.625 15.0938V5.90625ZM5.90625 3.9375C5.3841 3.9375 4.88335 4.14492 4.51413 4.51413C4.14492 4.88335 3.9375 5.3841 3.9375 5.90625V9.84375H9.84375V3.9375H5.90625ZM11.1562 3.9375V9.84375H17.0625V5.90625C17.0625 5.3841 16.8551 4.88335 16.4859 4.51413C16.1167 4.14492 15.6159 3.9375 15.0938 3.9375H11.1562ZM17.0625 11.1562H11.1562V17.0625H15.0938C15.6159 17.0625 16.1167 16.8551 16.4859 16.4859C16.8551 16.1167 17.0625 15.6159 17.0625 15.0938V11.1562ZM9.84375 17.0625V11.1562H3.9375V15.0938C3.9375 15.6159 4.14492 16.1167 4.51413 16.4859C4.88335 16.8551 5.3841 17.0625 5.90625 17.0625H9.84375Z" fill="white"/>
</svg>
