<svg width="23" height="23" viewBox="0 0 23 23" fill="none" xmlns="http://www.w3.org/2000/svg">
<path d="M9.75705 2.76001C3.94633 2.76001 0.459991 7.42119 0.459991 9.75201C0.459991 12.0828 1.62195 13.8308 3.94633 13.8308C6.27071 13.8308 7.43313 14.4132 7.43313 16.1612C7.43313 18.4915 9.17607 20.2395 11.5005 20.2395C19.0546 20.2395 22.5405 16.1612 22.5405 12.0828C22.54 5.09083 16.7284 2.76001 9.75705 2.76001ZM8.30437 5.09083C8.49538 5.09107 8.68447 5.12893 8.86085 5.20225C9.03723 5.27557 9.19744 5.38291 9.33233 5.51815C9.46723 5.65339 9.57416 5.81387 9.64704 5.99043C9.71991 6.16699 9.75729 6.35618 9.75705 6.54719C9.75705 7.35219 9.10661 8.00401 8.30437 8.00401C7.50213 8.00401 6.85169 7.35173 6.85169 6.54719C6.85145 6.35618 6.88883 6.16699 6.96171 5.99043C7.03458 5.81387 7.14152 5.65339 7.27641 5.51815C7.4113 5.38291 7.57151 5.27557 7.74789 5.20225C7.92427 5.12893 8.11336 5.09107 8.30437 5.09083ZM12.9522 5.09083C13.1432 5.09107 13.3323 5.12893 13.5087 5.20225C13.6851 5.27557 13.8453 5.38291 13.9802 5.51815C14.1151 5.65339 14.222 5.81387 14.2949 5.99043C14.3678 6.16699 14.4051 6.35618 14.4049 6.54719C14.4052 6.73824 14.3679 6.92748 14.295 7.10409C14.2222 7.28071 14.1152 7.44124 13.9803 7.57653C13.8454 7.71181 13.6852 7.81919 13.5088 7.89254C13.3324 7.96589 13.1433 8.00377 12.9522 8.00401C12.7612 8.00371 12.5721 7.96579 12.3958 7.89241C12.2194 7.81904 12.0592 7.71164 11.9244 7.57636C11.7895 7.44109 11.6826 7.28057 11.6098 7.10399C11.537 6.9274 11.4997 6.7382 11.5 6.54719C11.4995 6.16151 11.6522 5.79142 11.9245 5.51831C12.1969 5.2452 12.5665 5.09144 12.9522 5.09083ZM17.601 7.42119C17.7921 7.42137 17.9812 7.4592 18.1577 7.53252C18.3342 7.60585 18.4944 7.71322 18.6294 7.84851C18.7643 7.9838 18.8713 8.14436 18.9442 8.321C19.0171 8.49765 19.0544 8.68692 19.0541 8.87801C19.0544 9.06908 19.0171 9.25833 18.9442 9.43495C18.8713 9.61157 18.7643 9.77209 18.6294 9.90735C18.4944 10.0426 18.3341 10.1499 18.1577 10.2232C17.9812 10.2965 17.792 10.3342 17.601 10.3344C17.41 10.3342 17.2209 10.2964 17.0445 10.2231C16.8681 10.1498 16.7079 10.0424 16.573 9.90716C16.4382 9.7719 16.3313 9.61139 16.2585 9.43481C16.1857 9.25822 16.1484 9.06901 16.1488 8.87801C16.1484 8.68698 16.1857 8.49776 16.2585 8.32114C16.3313 8.14453 16.4381 7.98399 16.573 7.8487C16.7079 7.71341 16.8681 7.60602 17.0445 7.53266C17.2208 7.45931 17.4099 7.42143 17.601 7.42119ZM4.23705 8.58683C4.42802 8.58701 4.61708 8.62482 4.79343 8.69809C4.96978 8.77137 5.12996 8.87868 5.26482 9.01388C5.39969 9.14909 5.50659 9.30954 5.57942 9.48607C5.65224 9.66261 5.68957 9.85176 5.68927 10.0427C5.68927 10.8477 5.03883 11.4995 4.23705 11.4995C3.43527 11.4995 2.78437 10.8473 2.78437 10.0427C2.78401 9.65705 2.93683 9.28701 3.20925 9.01399C3.48167 8.74097 3.85137 8.58732 4.23705 8.58683ZM11.5 14.4132C12.4628 14.4132 13.2429 15.1952 13.2429 16.1616C13.2429 17.1267 12.4628 17.9092 11.5 17.9092C10.5372 17.9092 9.75705 17.1267 9.75705 16.1616C9.75663 15.9324 9.80138 15.7053 9.88876 15.4933C9.97613 15.2814 10.1044 15.0887 10.2663 14.9263C10.4281 14.7639 10.6204 14.635 10.8321 14.547C11.0438 14.459 11.2707 14.4135 11.5 14.4132Z" fill="white"/>
</svg>
