<svg width="20" height="20" viewBox="0 0 20 20" fill="none" xmlns="http://www.w3.org/2000/svg">
<g clip-path="url(#clip0_50_1251)">
<path d="M9.98375 20C9.48158 19.9967 9.00099 19.7955 8.64625 19.44L0.562499 11.3525C0.203663 10.9936 0.0020752 10.5069 0.0020752 9.99939C0.0020752 9.49188 0.203663 9.00515 0.562499 8.64626L8.64625 0.562514C8.82398 0.384649 9.03501 0.24355 9.2673 0.147282C9.49958 0.0510146 9.74856 0.00146484 10 0.00146484C10.2514 0.00146484 10.5004 0.0510146 10.7327 0.147282C10.965 0.24355 11.176 0.384649 11.3537 0.562514L19.44 8.64751C19.6198 8.8269 19.7619 9.04037 19.858 9.27541C19.9542 9.51045 20.0025 9.76232 20 10.0163C19.9967 10.5184 19.7954 10.999 19.44 11.3538L11.3525 19.44C11.1733 19.6196 10.96 19.7617 10.7252 19.8578C10.4904 19.954 10.2387 20.0023 9.985 20H9.98375ZM9.54875 1.46251L5.9575 5.05501L10 9.09751L14.0425 5.05501L10.4512 1.46251C10.392 1.40318 10.3217 1.3561 10.2443 1.32398C10.1668 1.29186 10.0838 1.27532 10 1.27532C9.91617 1.27532 9.83316 1.29186 9.75573 1.32398C9.6783 1.3561 9.60796 1.40318 9.54875 1.46251ZM10.9025 10L14.945 14.0425L18.5362 10.4513C18.7862 10.2013 18.7862 9.79751 18.5362 9.54876L14.945 5.95751L10.9025 10ZM10 10.9025L5.9575 14.945L9.54875 18.5363C9.79875 18.7863 10.2025 18.7863 10.4512 18.5363L14.0425 14.945L10 10.9025ZM9.0975 10L5.055 5.95751L1.4625 9.54876C1.34296 9.66852 1.27583 9.83081 1.27583 10C1.27583 10.1692 1.34296 10.3315 1.4625 10.4513L5.055 14.0425L9.0975 10Z" fill="white"/>
</g>
<defs>
<clipPath id="clip0_50_1251">
<rect width="20" height="20" fill="white"/>
</clipPath>
</defs>
</svg>
