<svg width="20" height="20" viewBox="0 0 20 20" fill="none" xmlns="http://www.w3.org/2000/svg">
<path d="M10 18.3333C13.0992 18.3333 15.8858 16.6375 17.3408 13.905L10.8333 9.99996L17.3408 6.09496C15.8858 3.36246 13.0992 1.66663 10 1.66663C5.405 1.66663 1.66667 5.40496 1.66667 9.99996C1.66667 14.595 5.405 18.3333 10 18.3333ZM9.58334 4.99996C9.91497 5.00007 10.233 5.13192 10.4674 5.36649C10.7018 5.60107 10.8334 5.91916 10.8333 6.25079C10.8332 6.58242 10.7014 6.90043 10.4668 7.13485C10.2322 7.36927 9.91414 7.5009 9.5825 7.50079C9.25087 7.50068 8.93287 7.36884 8.69845 7.13426C8.46403 6.89968 8.33239 6.58159 8.3325 6.24996C8.33261 5.91833 8.46446 5.60032 8.69904 5.3659C8.93361 5.13148 9.25171 4.99985 9.58334 4.99996Z" fill="white"/>
</svg>
