<svg width="18" height="18" viewBox="0 0 18 18" fill="none" xmlns="http://www.w3.org/2000/svg">
<path d="M6.75 14.625C6.75 15.8681 5.49 16.875 3.9375 16.875C2.385 16.875 1.125 15.8681 1.125 14.625C1.125 13.383 2.385 12.375 3.9375 12.375C5.49 12.375 6.75 13.383 6.75 14.625ZM16.875 12.375C16.875 13.6181 15.615 14.625 14.0625 14.625C12.51 14.625 11.25 13.6181 11.25 12.375C11.25 11.1319 12.51 10.125 14.0625 10.125C15.615 10.125 16.875 11.1319 16.875 12.375Z" fill="white"/>
<path fill-rule="evenodd" clip-rule="evenodd" d="M15.75 12.375V2.25H16.875V12.375H15.75ZM6.75 3.375V14.625H5.625V3.375H6.75Z" fill="white"/>
<path d="M5.625 3.26818C5.625 2.98928 5.72859 2.72033 5.91567 2.5135C6.10276 2.30666 6.36 2.17669 6.6375 2.1488L15.6375 1.2488C15.7939 1.23308 15.9519 1.25032 16.1013 1.29942C16.2507 1.34852 16.3881 1.42838 16.5047 1.53385C16.6213 1.63932 16.7145 1.76806 16.7783 1.91177C16.842 2.05547 16.875 2.21095 16.875 2.36818V3.37505L5.625 4.50005V3.26818Z" fill="white"/>
</svg>
