<svg width="24" height="24" viewBox="0 0 24 24" fill="none" xmlns="http://www.w3.org/2000/svg">
<path d="M9.5 2C11.109 1.99994 12.6754 2.51712 13.968 3.47521C15.2607 4.4333 16.2111 5.78155 16.679 7.321C17.9183 7.69776 19.0389 8.38907 19.9316 9.32758C20.8244 10.2661 21.4588 11.4198 21.7732 12.6764C22.0876 13.933 22.0712 15.2495 21.7256 16.4979C21.38 17.7462 20.7169 18.8838 19.8011 19.7997C18.8852 20.7157 17.7477 21.3789 16.4994 21.7246C15.2511 22.0704 13.9345 22.0869 12.6779 21.7727C11.4213 21.4584 10.2675 20.8241 9.32893 19.9314C8.39032 19.0388 7.69889 17.9183 7.322 16.679C5.59938 16.1581 4.12148 15.0352 3.15802 13.5152C2.19456 11.9952 1.80978 10.1794 2.07391 8.39924C2.33804 6.61908 3.23347 4.99324 4.59677 3.81845C5.96008 2.64366 7.70035 1.99825 9.5 2ZM16.986 9.038L16.996 9.258L17 9.5C17 10.5239 16.7904 11.5369 16.3841 12.4766C15.9778 13.4164 15.3834 14.263 14.6375 14.9644C13.8915 15.6657 13.0099 16.2069 12.0469 16.5546C11.0839 16.9022 10.0599 17.0491 9.038 16.986C9.43979 17.8678 10.0492 18.6392 10.8141 19.2342C11.579 19.8292 12.4767 20.2301 13.4303 20.4025C14.3839 20.575 15.365 20.5139 16.2899 20.2245C17.2147 19.935 18.0557 19.4259 18.7409 18.7407C19.4261 18.0554 19.9351 17.2143 20.2244 16.2895C20.5137 15.3646 20.5746 14.3834 20.4021 13.4298C20.2295 12.4763 19.8285 11.5787 19.2335 10.8138C18.6384 10.049 17.8669 9.43969 16.985 9.038H16.986ZM9.5 3.5C8.12875 3.49887 6.79848 3.96748 5.73068 4.82779C4.66288 5.68811 3.92199 6.88823 3.63136 8.22833C3.34073 9.56843 3.5179 10.9677 4.13337 12.193C4.74884 13.4184 5.76547 14.396 7.014 14.963L7.004 14.743L7 14.5C6.99997 13.4762 7.20956 12.4631 7.61588 11.5234C8.0222 10.5836 8.61662 9.73697 9.36255 9.03564C10.1085 8.33431 10.9901 7.79314 11.9531 7.44545C12.9161 7.09777 13.9401 6.95093 14.962 7.014C14.4849 5.96578 13.7162 5.07703 12.7477 4.45391C11.7791 3.83079 10.6517 3.49964 9.5 3.5Z" fill="white"/>
</svg>
