<svg width="20" height="20" viewBox="0 0 20 20" fill="none" xmlns="http://www.w3.org/2000/svg">
<path d="M1.875 6.875H18.125M1.3836 7.35195L9.49883 17.8777C9.55781 17.9546 9.63368 18.0169 9.72059 18.0598C9.8075 18.1026 9.9031 18.1249 10 18.1249C10.0969 18.1249 10.1925 18.1026 10.2794 18.0598C10.3663 18.0169 10.4422 17.9546 10.5012 17.8777L18.6164 7.35195C18.6962 7.24807 18.7425 7.12235 18.7491 6.99153C18.7557 6.8607 18.7224 6.73095 18.6535 6.61953L15.9008 2.17617C15.8441 2.08422 15.7649 2.00828 15.6706 1.95557C15.5763 1.90286 15.4701 1.87512 15.3621 1.875H4.63789C4.52988 1.87512 4.42369 1.90286 4.32941 1.95557C4.23513 2.00828 4.15589 2.08422 4.09922 2.17617L1.34649 6.61953C1.2776 6.73095 1.24426 6.8607 1.25089 6.99153C1.25752 7.12235 1.3038 7.24807 1.3836 7.35195V7.35195Z" stroke="white" stroke-width="1.5" stroke-linecap="round" stroke-linejoin="round"/>
<path d="M10 17.5L13.75 6.875M15.625 2.5L13.75 6.875L10 1.875L15.625 2.5ZM4.375 2.5L6.25 6.875L10 1.875L4.375 2.5ZM10 17.5L6.25 6.875L10 17.5Z" stroke="white" stroke-width="1.5" stroke-linecap="round" stroke-linejoin="round"/>
</svg>
