<svg width="1914" height="573" viewBox="0 0 1914 573" fill="none" xmlns="http://www.w3.org/2000/svg">
<g clip-path="url(#clip0_50_1344)">
<rect width="1920" height="573" transform="translate(-6)" fill="#121212"/>
<rect x="8.51172" y="-18" width="33.3737" height="132.076" rx="16.6869" transform="rotate(16.5 8.51172 -18)" fill="#141414"/>
<rect x="67.6127" y="-17.5283" width="33.3737" height="132.076" rx="16.6869" transform="rotate(16.5 67.6127 -17.5283)" fill="#141414"/>
<circle cx="121.986" cy="93.4985" r="22.0141" fill="#141414"/>
<rect x="185.512" y="-108" width="33.3737" height="132.076" rx="16.6869" transform="rotate(16.5 185.512 -108)" fill="#141414"/>
<rect x="244.613" y="-107.528" width="33.3737" height="132.076" rx="16.6869" transform="rotate(16.5 244.613 -107.528)" fill="#141414"/>
<circle cx="298.986" cy="3.49845" r="22.0141" fill="#141414"/>
<rect x="417.512" y="-66" width="33.3737" height="132.076" rx="16.6869" transform="rotate(16.5 417.512 -66)" fill="#141414"/>
<rect x="476.613" y="-65.5283" width="33.3737" height="132.076" rx="16.6869" transform="rotate(16.5 476.613 -65.5283)" fill="#141414"/>
<circle cx="530.986" cy="45.4985" r="22.0141" fill="#141414"/>
<rect x="629.512" y="-21" width="33.3737" height="132.076" rx="16.6869" transform="rotate(16.5 629.512 -21)" fill="#141414"/>
<rect x="688.613" y="-20.5283" width="33.3737" height="132.076" rx="16.6869" transform="rotate(16.5 688.613 -20.5283)" fill="#141414"/>
<circle cx="742.986" cy="90.4985" r="22.0141" fill="#141414"/>
<rect x="806.512" y="-110" width="33.3737" height="132.076" rx="16.6869" transform="rotate(16.5 806.512 -110)" fill="#141414"/>
<rect x="865.613" y="-109.528" width="33.3737" height="132.076" rx="16.6869" transform="rotate(16.5 865.613 -109.528)" fill="#141414"/>
<circle cx="919.986" cy="1.49845" r="22.0141" fill="#141414"/>
<rect x="1042.51" y="-39" width="33.3737" height="132.076" rx="16.6869" transform="rotate(16.5 1042.51 -39)" fill="#141414"/>
<rect x="1101.61" y="-38.5283" width="33.3737" height="132.076" rx="16.6869" transform="rotate(16.5 1101.61 -38.5283)" fill="#141414"/>
<circle cx="1155.99" cy="72.4985" r="22.0141" fill="#141414"/>
<rect x="1217.51" y="-136" width="33.3737" height="132.076" rx="16.6869" transform="rotate(16.5 1217.51 -136)" fill="#141414"/>
<rect x="1276.61" y="-135.528" width="33.3737" height="132.076" rx="16.6869" transform="rotate(16.5 1276.61 -135.528)" fill="#141414"/>
<rect x="1453.51" y="-54" width="33.3737" height="132.076" rx="16.6869" transform="rotate(16.5 1453.51 -54)" fill="#141414"/>
<rect x="1512.61" y="-53.5283" width="33.3737" height="132.076" rx="16.6869" transform="rotate(16.5 1512.61 -53.5283)" fill="#141414"/>
<circle cx="1566.99" cy="57.4985" r="22.0141" fill="#141414"/>
<rect x="67.5117" y="164" width="33.3737" height="132.076" rx="16.6869" transform="rotate(16.5 67.5117 164)" fill="#141414"/>
<rect x="126.613" y="164.472" width="33.3737" height="132.076" rx="16.6869" transform="rotate(16.5 126.613 164.472)" fill="#141414"/>
<circle cx="180.986" cy="275.498" r="22.0141" fill="#141414"/>
<rect x="-25.3873" y="285.472" width="33.3737" height="132.076" rx="16.6869" transform="rotate(16.5 -25.3873 285.472)" fill="#141414"/>
<circle cx="28.986" cy="396.498" r="22.0141" fill="#141414"/>
<rect x="244.512" y="74" width="33.3737" height="132.076" rx="16.6869" transform="rotate(16.5 244.512 74)" fill="#141414"/>
<rect x="303.613" y="74.4717" width="33.3737" height="132.076" rx="16.6869" transform="rotate(16.5 303.613 74.4717)" fill="#141414"/>
<circle cx="357.986" cy="185.498" r="22.0141" fill="#141414"/>
<rect x="476.512" y="116" width="33.3737" height="132.076" rx="16.6869" transform="rotate(16.5 476.512 116)" fill="#141414"/>
<rect x="535.613" y="116.472" width="33.3737" height="132.076" rx="16.6869" transform="rotate(16.5 535.613 116.472)" fill="#141414"/>
<circle cx="589.986" cy="227.498" r="22.0141" fill="#141414"/>
<rect x="688.512" y="161" width="33.3737" height="132.076" rx="16.6869" transform="rotate(16.5 688.512 161)" fill="#141414"/>
<rect x="747.613" y="161.472" width="33.3737" height="132.076" rx="16.6869" transform="rotate(16.5 747.613 161.472)" fill="#141414"/>
<circle cx="801.986" cy="272.498" r="22.0141" fill="#141414"/>
<rect x="865.512" y="72" width="33.3737" height="132.076" rx="16.6869" transform="rotate(16.5 865.512 72)" fill="#141414"/>
<rect x="924.613" y="72.4717" width="33.3737" height="132.076" rx="16.6869" transform="rotate(16.5 924.613 72.4717)" fill="#141414"/>
<circle cx="978.986" cy="183.498" r="22.0141" fill="#141414"/>
<rect x="1101.51" y="143" width="33.3737" height="132.076" rx="16.6869" transform="rotate(16.5 1101.51 143)" fill="#141414"/>
<rect x="1160.61" y="143.472" width="33.3737" height="132.076" rx="16.6869" transform="rotate(16.5 1160.61 143.472)" fill="#141414"/>
<circle cx="1214.99" cy="254.498" r="22.0141" fill="#141414"/>
<rect x="1276.51" y="46" width="33.3737" height="132.076" rx="16.6869" transform="rotate(16.5 1276.51 46)" fill="#141414"/>
<rect x="1335.61" y="46.4717" width="33.3737" height="132.076" rx="16.6869" transform="rotate(16.5 1335.61 46.4717)" fill="#141414"/>
<circle cx="1389.99" cy="157.498" r="22.0141" fill="#141414"/>
<rect x="1512.51" y="128" width="33.3737" height="132.076" rx="16.6869" transform="rotate(16.5 1512.51 128)" fill="#141414"/>
<rect x="1571.61" y="128.472" width="33.3737" height="132.076" rx="16.6869" transform="rotate(16.5 1571.61 128.472)" fill="#141414"/>
<circle cx="1625.99" cy="239.498" r="22.0141" fill="#141414"/>
<rect x="1700.51" y="38" width="33.3737" height="132.076" rx="16.6869" transform="rotate(16.5 1700.51 38)" fill="#141414"/>
<rect x="1759.61" y="38.4717" width="33.3737" height="132.076" rx="16.6869" transform="rotate(16.5 1759.61 38.4717)" fill="#141414"/>
<circle cx="1813.99" cy="149.498" r="22.0141" fill="#141414"/>
<rect x="1888.51" y="-52" width="33.3737" height="132.076" rx="16.6869" transform="rotate(16.5 1888.51 -52)" fill="#141414"/>
<rect x="1947.61" y="-51.5283" width="33.3737" height="132.076" rx="16.6869" transform="rotate(16.5 1947.61 -51.5283)" fill="#141414"/>
<rect x="126.512" y="346" width="33.3737" height="132.076" rx="16.6869" transform="rotate(16.5 126.512 346)" fill="#141414"/>
<rect x="185.613" y="346.472" width="33.3737" height="132.076" rx="16.6869" transform="rotate(16.5 185.613 346.472)" fill="#141414"/>
<circle cx="239.986" cy="457.498" r="22.0141" fill="#141414"/>
<rect x="-25.4883" y="467" width="33.3737" height="132.076" rx="16.6869" transform="rotate(16.5 -25.4883 467)" fill="#141414"/>
<rect x="33.6127" y="467.472" width="33.3737" height="132.076" rx="16.6869" transform="rotate(16.5 33.6127 467.472)" fill="#141414"/>
<circle cx="87.986" cy="578.498" r="22.0141" fill="#141414"/>
<rect x="303.512" y="256" width="33.3737" height="132.076" rx="16.6869" transform="rotate(16.5 303.512 256)" fill="#141414"/>
<rect x="362.613" y="256.472" width="33.3737" height="132.076" rx="16.6869" transform="rotate(16.5 362.613 256.472)" fill="#141414"/>
<circle cx="416.986" cy="367.498" r="22.0141" fill="#141414"/>
<rect x="535.512" y="298" width="33.3737" height="132.076" rx="16.6869" transform="rotate(16.5 535.512 298)" fill="#141414"/>
<rect x="594.613" y="298.472" width="33.3737" height="132.076" rx="16.6869" transform="rotate(16.5 594.613 298.472)" fill="#141414"/>
<circle cx="648.986" cy="409.498" r="22.0141" fill="#141414"/>
<rect x="747.512" y="343" width="33.3737" height="132.076" rx="16.6869" transform="rotate(16.5 747.512 343)" fill="#141414"/>
<rect x="806.613" y="343.472" width="33.3737" height="132.076" rx="16.6869" transform="rotate(16.5 806.613 343.472)" fill="#141414"/>
<circle cx="860.986" cy="454.498" r="22.0141" fill="#141414"/>
<rect x="924.512" y="254" width="33.3737" height="132.076" rx="16.6869" transform="rotate(16.5 924.512 254)" fill="#141414"/>
<rect x="983.613" y="254.472" width="33.3737" height="132.076" rx="16.6869" transform="rotate(16.5 983.613 254.472)" fill="#141414"/>
<circle cx="1037.99" cy="365.498" r="22.0141" fill="#141414"/>
<rect x="1160.51" y="325" width="33.3737" height="132.076" rx="16.6869" transform="rotate(16.5 1160.51 325)" fill="#141414"/>
<rect x="1219.61" y="325.472" width="33.3737" height="132.076" rx="16.6869" transform="rotate(16.5 1219.61 325.472)" fill="#141414"/>
<circle cx="1273.99" cy="436.498" r="22.0141" fill="#141414"/>
<rect x="1335.51" y="228" width="33.3737" height="132.076" rx="16.6869" transform="rotate(16.5 1335.51 228)" fill="#141414"/>
<rect x="1394.61" y="228.472" width="33.3737" height="132.076" rx="16.6869" transform="rotate(16.5 1394.61 228.472)" fill="#141414"/>
<circle cx="1448.99" cy="339.498" r="22.0141" fill="#141414"/>
<rect x="1571.51" y="310" width="33.3737" height="132.076" rx="16.6869" transform="rotate(16.5 1571.51 310)" fill="#141414"/>
<rect x="1630.61" y="310.472" width="33.3737" height="132.076" rx="16.6869" transform="rotate(16.5 1630.61 310.472)" fill="#141414"/>
<circle cx="1684.99" cy="421.498" r="22.0141" fill="#141414"/>
<rect x="1759.51" y="220" width="33.3737" height="132.076" rx="16.6869" transform="rotate(16.5 1759.51 220)" fill="#141414"/>
<rect x="1818.61" y="220.472" width="33.3737" height="132.076" rx="16.6869" transform="rotate(16.5 1818.61 220.472)" fill="#141414"/>
<circle cx="1872.99" cy="331.498" r="22.0141" fill="#141414"/>
<rect x="1947.51" y="130" width="33.3737" height="132.076" rx="16.6869" transform="rotate(16.5 1947.51 130)" fill="#141414"/>
<rect x="185.512" y="528" width="33.3737" height="132.076" rx="16.6869" transform="rotate(16.5 185.512 528)" fill="#141414"/>
<rect x="244.613" y="528.472" width="33.3737" height="132.076" rx="16.6869" transform="rotate(16.5 244.613 528.472)" fill="#141414"/>
<rect x="362.512" y="438" width="33.3737" height="132.076" rx="16.6869" transform="rotate(16.5 362.512 438)" fill="#141414"/>
<rect x="421.613" y="438.472" width="33.3737" height="132.076" rx="16.6869" transform="rotate(16.5 421.613 438.472)" fill="#141414"/>
<circle cx="475.986" cy="549.498" r="22.0141" fill="#141414"/>
<rect x="594.512" y="480" width="33.3737" height="132.076" rx="16.6869" transform="rotate(16.5 594.512 480)" fill="#141414"/>
<rect x="653.613" y="480.472" width="33.3737" height="132.076" rx="16.6869" transform="rotate(16.5 653.613 480.472)" fill="#141414"/>
<circle cx="707.986" cy="591.498" r="22.0141" fill="#141414"/>
<rect x="806.512" y="525" width="33.3737" height="132.076" rx="16.6869" transform="rotate(16.5 806.512 525)" fill="#141414"/>
<rect x="865.613" y="525.472" width="33.3737" height="132.076" rx="16.6869" transform="rotate(16.5 865.613 525.472)" fill="#141414"/>
<rect x="983.512" y="436" width="33.3737" height="132.076" rx="16.6869" transform="rotate(16.5 983.512 436)" fill="#141414"/>
<rect x="1042.61" y="436.472" width="33.3737" height="132.076" rx="16.6869" transform="rotate(16.5 1042.61 436.472)" fill="#141414"/>
<circle cx="1096.99" cy="547.498" r="22.0141" fill="#141414"/>
<rect x="1219.51" y="507" width="33.3737" height="132.076" rx="16.6869" transform="rotate(16.5 1219.51 507)" fill="#141414"/>
<rect x="1278.61" y="507.472" width="33.3737" height="132.076" rx="16.6869" transform="rotate(16.5 1278.61 507.472)" fill="#141414"/>
<rect x="1394.51" y="410" width="33.3737" height="132.076" rx="16.6869" transform="rotate(16.5 1394.51 410)" fill="#141414"/>
<rect x="1453.61" y="410.472" width="33.3737" height="132.076" rx="16.6869" transform="rotate(16.5 1453.61 410.472)" fill="#141414"/>
<circle cx="1507.99" cy="521.498" r="22.0141" fill="#141414"/>
<rect x="1630.51" y="492" width="33.3737" height="132.076" rx="16.6869" transform="rotate(16.5 1630.51 492)" fill="#141414"/>
<rect x="1689.61" y="492.472" width="33.3737" height="132.076" rx="16.6869" transform="rotate(16.5 1689.61 492.472)" fill="#141414"/>
<rect x="1818.51" y="402" width="33.3737" height="132.076" rx="16.6869" transform="rotate(16.5 1818.51 402)" fill="#141414"/>
<rect x="1877.61" y="402.472" width="33.3737" height="132.076" rx="16.6869" transform="rotate(16.5 1877.61 402.472)" fill="#141414"/>
<circle cx="1931.99" cy="513.498" r="22.0141" fill="#141414"/>
</g>
<defs>
<clipPath id="clip0_50_1344">
<rect width="1920" height="573" fill="white" transform="translate(-6)"/>
</clipPath>
</defs>
</svg>
